# xmcd CD database file
#
# Track frame offsets:
#	150
#	17892
#	36027
#	52564
#	78325
#	100432
#	125205
#	144060
#	158052
#	179722
#	199732
#	223415
#	244912
#	283350
#
# Disc length: 4237 seconds
#
# Revision: 1
# Processed by: cddbd v1.5.2PL0 Copyright (c) Steve Scherf et al.
# Submitted via: CDex 1.70beta2
#
DISCID=cf108b0e
DTITLE=Harry Connick Jr. - come by me (Japan release)
DYEAR=1900
DGENRE=Jazz
TTITLE0=Nowhere With Love
TTITLE1=Come By Me
TTITLE2=Charade
TTITLE3=Change Partners
TTITLE4=Easy For You To Say
TTITLE5=Time After Time
TTITLE6=Next Door Blues
TTITLE7=Easy To Love
TTITLE8=There's No Business Like Show Business
TTITLE9=A Moment With Me
TTITLE10=Danny Boy
TTITLE11=Cry Me A River
TTITLE12=Love For Sale
TTITLE13=St. James Infirmary Blues/Just A Closer Walk With Thee
EXTD=
EXTT0=
EXTT1=
EXTT2=
EXTT3=
EXTT4=
EXTT5=
EXTT6=
EXTT7=
EXTT8=
EXTT9=
EXTT10=
EXTT11=
EXTT12=
EXTT13=
PLAYORDER=
